<svg viewBox="0 0 31 24" xmlns="http://www.w3.org/2000/svg"><path d="m6.49103243 22.6668162c0-.4223828.2870679-.7693662.75624926-.7693662.44837272 0 .75093318.33205.75093318.7693662s-.30256046.7693661-.75093318.7693661c-.46918136 0-.75624926-.3469834-.75624926-.7693661zm2.01828481 0v-1.2019974h-.54208748v.292813c-.17193697-.2163888-.43272828-.3521076-.78738625-.3521076-.69868378 0-1.24699867.5282346-1.24699867 1.2618776 0 .7336429.54801111 1.2618776 1.24699867 1.2618776.35450608 0 .61544928-.1358652.78738625-.3521076v.2917881h.54147993v-1.2021437zm18.31645106 0c0-.4223828.2870679-.7693662.7564012-.7693662.4488284 0 .7509332.33205.7509332.7693662s-.3021048.7693661-.7509332.7693661c-.4691814 0-.7564012-.3469834-.7564012-.7693661zm2.0188924 0v-2.1668162h-.5425431v1.2576318c-.171937-.2163888-.4327283-.3521076-.7873863-.3521076-.6986838 0-1.2469987.5282346-1.2469987 1.2618776 0 .7336429.5480111 1.2618776 1.2469987 1.2618776.354658 0 .6154493-.1358652.7873863-.3521076v.2917881h.5425431zm-13.6073224-.7941089c.3493419 0 .5736802.2111182.6309419.5828443h-1.2934764c.0578693-.3469834.2764358-.5828443.6626864-.5828443zm.0109359-.4685008c-.7305802 0-1.2416826.5124228-1.2416826 1.2618776 0 .7640955.5316073 1.2618776 1.2779838 1.2618776.3754666 0 .7193405-.0903328 1.021901-.3367349l-.2656517-.3872452c-.2089976.1610471-.475105.25138-.7252642.25138-.3493419 0-.6673949-.155923-.7456171-.5885542h1.8510564c.0053161-.0650044.010784-.1305946.010784-.2008697-.0054679-.749162-.4860409-1.2618776-1.1838133-1.2618776zm6.5445407 1.2617312c0-.4223827.2870679-.7693661.7562492-.7693661.4483728 0 .7509332.3320499.7509332.7693661s-.3025604.7693662-.7509332.7693662c-.4691813 0-.7564011-.3469834-.7564011-.7693662zm2.0181329 0v-1.2011189h-.5417837v.292813c-.1725445-.2163888-.4327283-.3521076-.7873863-.3521076-.6986837 0-1.2469986.5282346-1.2469986 1.2618776 0 .7336429.5480111 1.2618776 1.2469986 1.2618776.354658 0 .6148418-.1358652.7873863-.3521076v.2917881h.5419356v-1.2021437zm-5.0794311 0c0 .728958.526443 1.2618776 1.3299294 1.2618776.3754666 0 .6256257-.0805235.8961379-.2865175l-.2603357-.4223827c-.2035296.1409894-.4172357.2163888-.6531174.2163888-.4327283-.0051243-.7509332-.3067216-.7509332-.7693662 0-.4626445.3182049-.7640955.7509332-.7693661.2352741 0 .4489803.0753993.6531174.2163888l.2603357-.4223828c-.2709678-.2059939-.521127-.2865175-.8961379-.2865175-.8034864 0-1.3299294.5327733-1.3299294 1.2618776zm6.9883567-1.2618776c-.3127369 0-.5164184.1409895-.6572184.3521076v-.2913489h-.5372271v2.4028235h.5426951v-1.3469398c0-.3976401.177253-.6185675.5316072-.6185675.1160375-.0016144.2312581.0189362.3390135.0604659l.1670766-.4925114c-.1199914-.0455325-.2764358-.0655902-.3862507-.0655902zm-14.5304963.2518192c-.2607913-.1657322-.6201578-.25138-1.0165849-.25138-.63154938 0-1.03815297.2917882-1.03815297.7692198 0 .3917838.30271235.6335009.8601405.7089002l.25608277.0351376c.2972444.0402618.4375887.1156611.4375887.25138 0 .1857898-.1974541.2917881-.5682122.2917881-.37546656 0-.64643436-.1156611-.82915535-.25138l-.25471581.4074493c.29724438.2111182.67271097.3118459 1.07931456.3118459.7199481 0 1.1371838-.3267793 1.1371838-.7842996 0-.4223828-.3283814-.6433102-.8709245-.7187095l-.2554753-.0357232c-.23466659-.0292813-.42270366-.0748137-.42270366-.2358609 0-.1756878.17725304-.2813933.47464936-.2813933.3182049 0 .6262333.1156612.7772097.205994l.2346666-.4223828zm6.9945841-.2509407c-.3127369 0-.5164184.1409894-.6566108.3521076v-.2922274h-.5372271v2.4028235h.5420875v-1.3469398c0-.3976401.177253-.6185675.5316072-.6185675.1160375-.0016144.2312581.0189362.3390135.0604659l.1670766-.4925114c-.1199914-.0455325-.2764358-.0655902-.3862506-.0655902zm-4.6258942.0598802h-.886417v-.7289579h-.5480112v.7289579h-.5056344v.477578h.5056344v1.0961455c0 .5575159.2244902.8895658.8657604.8895658.2352742 0 .506242-.0702751.6781789-.1857898l-.1565963-.4474183c-.1617605.0903328-.3390135.1358653-.4799654.1358653-.2709678 0-.3593664-.1610472-.3593664-.4021787v-1.0857506h.886417zm-8.10457999 2.4034091v-1.5079869c0-.5679108-.37546659-.9500318-.98073939-.955156-.3182049-.0051243-.64643439.0903328-.8762406.4275069-.17193697-.2664598-.44290477-.4275069-.82383932-.4275069-.26625927 0-.52644304.0753993-.73012455.3567926v-.2970588h-.54254315v2.4028235h.54679601v-1.3322992c0-.4171121.23998269-.6387715.61058887-.6387715.35997404 0 .54208748.226198.54208748.6335009v1.3372769h.54801111v-1.3322991c0-.4171121.25015917-.6387715.60998132-.6387715.37015052 0 .54679601.226198.54679601.6335009v1.3372769z" fill="#231f20"/><path d="m18.9998521 17h-7.9998521v-15h8z" fill="#ff5f00"/><path d="m11.8409343 9.49999989c0-3.03009357 1.4308312-5.72931573 3.6589107-7.46881105-1.6865414-1.31864916-3.7725352-2.03432523-5.92031216-2.03117851-5.29075883 0-9.57953284 4.25322664-9.57953284 9.49998956 0 5.24676291 4.28877401 9.49998951 9.57953284 9.49998951 2.14783006.0031814 4.23388406-.7124966 5.92046716-2.0311785-2.2279245-1.7391879-3.6590657-4.4385638-3.6590657-7.46881101" fill="#eb001b"/><path d="m30.5 9.49999989c0 5.24676311-4.2885596 9.49998991-9.5790539 9.49998991-2.1479496.0031258-4.2341267-.7125365-5.9209461-2.0311786 2.228588-1.7394954 3.6593477-4.438564 3.6593477-7.46881131 0-3.03024736-1.4307597-5.72931595-3.6593477-7.46881133 1.6867777-1.31860937 3.7728946-2.0342698 5.9207911-2.03117859 5.2904943 0 9.5790539 4.2532268 9.5790539 9.49998992" fill="#f79e1b"/></svg>