<svg height="24" viewBox="0 0 24 24" width="24" xmlns="http://www.w3.org/2000/svg"><path d="m7 4.5v15c0 .8284271.67157288 1.5 1.5 1.5h7.0113578c.8284271 0 1.5-.6715729 1.5-1.5v-15c0-.82842712-.6715729-1.5-1.5-1.5h-7.0113578c-.82842712 0-1.5.67157288-1.5 1.5zm-1 0c0-1.38071187 1.11928813-2.5 2.5-2.5h7.0113578c1.3807118 0 2.5 1.11928813 2.5 2.5v15c0 1.3807119-1.1192882 2.5-2.5 2.5h-7.0113578c-1.38071187 0-2.5-1.1192881-2.5-2.5zm5 14.5c0-.552.448-1 1-1s1 .448 1 1-.448 1-1 1-1-.448-1-1z" fill="#121E6C"/></svg>